<svg width="32" height="32" viewBox="0 0 32 32" fill="none" xmlns="http://www.w3.org/2000/svg">
<path d="M29.096 9.90801C28.9733 9.73077 28.8095 9.5859 28.6187 9.48582C28.4278 9.38573 28.2155 9.33341 28 9.33334H9.77729L8.23863 5.64001C8.03688 5.15363 7.69525 4.73812 7.25706 4.44615C6.81887 4.15418 6.30385 3.99891 5.77729 4.00001H2.66663V6.66667H5.77729L12.1026 21.8467C12.2039 22.0895 12.3749 22.297 12.5939 22.4429C12.8129 22.5888 13.0701 22.6667 13.3333 22.6667H24C24.556 22.6667 25.0533 22.3213 25.2493 21.8027L29.2493 11.136C29.3249 10.9342 29.3504 10.717 29.3237 10.5031C29.297 10.2893 29.2189 10.0851 29.096 9.90801Z" fill="white"/>
<path d="M14 28C15.1046 28 16 27.1046 16 26C16 24.8954 15.1046 24 14 24C12.8954 24 12 24.8954 12 26C12 27.1046 12.8954 28 14 28Z" fill="white"/>
<path d="M23.3334 28C24.4379 28 25.3334 27.1046 25.3334 26C25.3334 24.8954 24.4379 24 23.3334 24C22.2288 24 21.3334 24.8954 21.3334 26C21.3334 27.1046 22.2288 28 23.3334 28Z" fill="white"/>
</svg>
