<svg width="225" height="216" viewBox="0 0 225 216" fill="none" xmlns="http://www.w3.org/2000/svg">
<path fill-rule="evenodd" clip-rule="evenodd" d="M203.772 45.3789C199.494 44.4132 196.33 45.8595 193.793 49.0883C194.428 44.0578 196.685 40.7938 202.361 41.9362C200.321 38.9814 197.561 38.3496 194.61 38.119C197.825 37.3889 201.233 36.2573 204.214 40.7502C204.496 38.5144 202.857 35.7525 201.219 32.9908C203.731 35.5793 205.807 38.2545 206.415 41.3124C207.552 40.1781 209.37 39.2719 211.432 38.6804C211.711 38.7156 212.55 38.8214 213.125 39.8877C212.2 39.3449 208.233 40.4062 206.884 43.2172C208.266 42.3978 209.733 42.0151 211.584 43.1004C209.872 43.1682 208.526 43.7084 207.232 44.9646C211.703 45.5288 214.723 47.4714 215.521 52.3984C213.516 49.1644 211.09 47.0128 207.422 46.8341C210.911 50.6813 211.012 54.385 209.365 58.4362C209.422 54.6105 208.325 50.9234 205.604 47.7407C203.732 50.2018 201.599 51.3521 199.049 51.3144C201.654 49.7974 203.754 46.6555 203.773 45.3804L203.772 45.3789Z" fill="#358C26"/>
<path fill-rule="evenodd" clip-rule="evenodd" d="M211.014 52.1131C212.683 59.1376 210.648 66.2626 205.141 70.5362C197.273 76.6413 185.484 74.4438 178.768 65.789C172.053 57.1343 172.974 45.326 180.842 39.2209C185.563 35.5578 191.608 34.9011 197.336 36.7594C195.152 37.1935 192.531 37.7145 190.19 38.2711C193.543 38.6941 198.085 38.6993 200.633 41.0082C194.013 40.599 193.237 46.7469 192.602 51.7775C195.489 48.025 197.711 45.0401 202.863 45.8326C201.759 48.9582 198.84 50.7193 196.235 52.2363C200.096 52.0138 202.769 52.2089 205.463 48.8581C208.917 52.9847 208.703 56.9325 208.662 61.7541C210.046 58.6634 211.551 55.7304 211.014 52.1138L211.014 52.1131Z" fill="#C92C0A"/>
<path d="M160.821 14.3161C161.956 16.4018 163.401 17.4689 164.804 18.0955L164.284 19.1453L162.119 19.376C161.174 18.2976 160.384 16.8657 160.328 14.6636C160.324 14.4772 160.34 14.2715 160.357 14.054C160.373 13.8409 160.391 13.6094 160.392 13.3617C160.432 13.4523 160.471 13.5455 160.511 13.6417C160.603 13.8719 160.706 14.0969 160.821 14.3161ZM158.217 11.5958C159.004 12.4912 158.952 13.1643 158.891 13.9389C158.867 14.1919 158.856 14.4461 158.858 14.7004C158.903 16.4815 159.357 18.0019 160.246 19.3475C160.406 19.59 160.576 19.8171 160.749 20.032L159.726 20.7952L158.633 20.4399C158.604 19.5896 158.342 18.6115 157.845 17.5148C157.532 16.8299 157.169 16.1681 156.758 15.5367L156.762 14.1508C156.762 14.005 156.719 13.8624 156.638 13.7411C156.628 13.7258 155.654 12.2094 156.169 11.0358C156.526 11.0152 157.417 11.258 158.217 11.5958ZM154.725 13.8593C154.81 13.6855 154.823 13.486 154.762 13.3026C154.677 13.012 154.622 12.7131 154.597 12.4111C154.711 13.0951 154.946 13.753 155.291 14.3538L155.288 15.7581C155.288 15.9096 155.333 16.057 155.42 16.1813C155.913 16.8868 156.947 18.6688 157.137 20.1401L154.965 19.797C155.207 18.0036 154.472 15.8841 154.142 15.0514L154.725 13.8593ZM117.895 44.18C117.913 43.7743 118.366 42.9931 118.731 42.4899C119.144 42.3673 120.134 42.4264 120.749 42.4627C120.911 42.4724 121.067 42.4815 121.218 42.489L120.937 44.0732L119.155 45.3502C118.622 44.941 118.012 44.4386 117.895 44.18ZM120.388 46.2754L121.754 45.2968C122.409 45.4679 123.917 45.8412 125.617 46.1222C126.016 46.1835 126.389 45.913 126.455 45.5152C126.521 45.1174 126.254 44.741 125.857 44.6714C124.467 44.4421 123.186 44.1415 122.451 43.9568L122.723 42.4251C124.458 42.1122 127.996 41.7721 130.361 41.5446C130.776 41.5047 131.155 41.4684 131.481 41.436C137.232 40.8702 146.628 35.2085 150.125 28.7583C150.33 28.3793 150.521 27.9938 150.723 27.5863C151.39 26.2385 152.219 24.5596 154.422 21.3142C154.445 21.2801 154.466 21.2447 154.487 21.2097L156.956 21.6C155.287 26.4542 154.811 28.0897 154.392 29.8572C152.849 36.3753 147.196 44.5067 140.408 46.8325C138.842 47.3691 134.25 49.0103 131.838 50.1445C131.562 50.2745 130.974 50.4 130.405 50.5217C130.135 50.5795 129.864 50.6377 129.598 50.7003C127.15 50.183 123.522 48.7808 120.471 46.3411C120.445 46.3205 120.416 46.2972 120.388 46.2754ZM128.276 54.4993C128.178 54.0875 128.424 53.168 128.655 52.5619C128.872 52.4227 129.288 52.2941 129.732 52.182C129.78 52.175 129.828 52.1637 129.874 52.147C130.165 52.0766 130.46 52.0135 130.712 51.9597C131.111 51.8739 131.477 51.7956 131.799 51.7072L132.499 53.0096L130.828 55.7198C130.185 55.4787 128.556 54.8652 128.276 54.4993ZM146.721 57.115C144.089 57.8682 137.965 58.2464 132.233 56.2442L133.761 53.7636C134.912 53.7164 136.058 53.5763 137.187 53.3444C137.585 53.2647 137.843 52.877 137.763 52.4792C137.683 52.0809 137.296 51.8227 136.898 51.9028C135.871 52.1129 134.83 52.2429 133.782 52.2914L133.172 51.1549C135.63 50.0779 139.484 48.7041 140.885 48.2236C144.216 47.0822 147.599 44.5038 150.412 40.9628C153.003 37.6999 154.976 33.7757 155.823 30.1954C156.235 28.4567 156.708 26.8367 158.403 21.9119L159.633 22.311C159.86 22.3845 160.109 22.3434 160.3 22.2007L161.757 21.115C162.086 21.4296 162.41 21.711 162.706 21.967C163.216 22.4099 163.658 22.7924 163.913 23.1521C166.836 27.2755 166.149 35.3302 164.728 39.7308C163.121 44.7106 160.577 48.7351 157.167 51.6927C154.351 54.1355 150.934 55.909 146.721 57.115ZM151.958 62.0686C151.698 61.757 151.509 60.8734 151.441 60.255C151.665 59.8874 152.438 59.2651 152.917 58.8787C153.168 58.6769 153.402 58.4874 153.612 58.3054L154.691 59.659L153.76 62.0808C153.074 62.1408 152.229 62.1859 151.958 62.0686ZM166.785 56.9029C165.555 58.0434 161.82 61.5041 155.393 61.9317L156.215 59.7943C156.309 59.551 156.267 59.2762 156.104 59.0722L154.608 57.197C155.097 56.5765 155.643 55.9323 156.216 55.2575C156.981 54.356 157.772 53.4238 158.443 52.5175C161.933 49.3897 164.478 45.2966 166.128 40.1837C167.538 35.814 168.51 27.096 165.112 22.3021C164.755 21.7979 164.227 21.3406 163.669 20.8562C163.612 20.8071 163.555 20.7573 163.497 20.7074L164.841 20.5643C165.087 20.538 165.303 20.3896 165.416 20.1704C167.366 20.5455 169.093 21.7559 170.976 25.7147C171.059 25.8919 171.209 26.0294 171.394 26.0959C171.578 26.162 171.781 26.1519 171.958 26.0679C172.135 25.9834 172.271 25.8324 172.336 25.6473C172.401 25.4626 172.389 25.2596 172.304 25.0832C170.976 22.2907 169.295 19.6342 166.087 18.8181L166.194 18.6006C166.608 18.7231 167.007 18.8224 167.38 18.9148C168.017 19.0732 168.567 19.2102 168.945 19.408C173.419 21.7497 176.384 28.986 176.46 32.9394C176.695 45.113 171.328 52.6904 166.785 56.9029Z" fill="#F9BA15"/>
<path d="M0 65.6265C6.03996 25.6698 23.037 5.22689 30.7806 0C21.4883 10.2215 17.2294 43.3638 16.2614 58.6573L25.5537 51.6882C21.6797 92.9225 56.9151 111.507 48.7843 108.022C42.2798 105.235 32.9101 96.02 29.0383 91.761C31.826 104.306 51.4946 119.831 60.9804 126.026C42.8605 121.845 25.5537 97.5687 19.1653 85.9533C28.4575 114.992 46.6741 127.768 52.2689 131.253L44.1382 127.188C44.1382 129.046 53.8176 136.867 58.6573 140.545C55.4051 140.545 42.9767 130.866 37.169 126.026C40.4213 133.925 57.1086 145.191 65.0458 149.838L60.9804 157.968C13.1253 136.596 2.71024 86.3405 3.4846 63.8842L0 65.6265Z" fill="#F26A2C"/>
<path d="M212.56 67.9496L112.669 45.8805L67.3688 160.872L205.591 191.653L212.56 67.9496Z" fill="#F26A2C"/>
<path d="M191.072 75.4996C159.014 89.438 137.448 71.6278 130.672 60.9805L123.703 66.2074C145.075 95.478 180.618 89.6316 195.718 83.0496L191.072 75.4996Z" fill="black"/>
<circle cx="123.122" cy="58.0766" r="8.71149" fill="black"/>
<circle cx="199.783" cy="75.4996" r="8.71149" fill="black"/>
<circle cx="102.215" cy="169.584" r="12.1961" fill="white" stroke="black" stroke-width="6.96919"/>
<circle cx="162.034" cy="184.103" r="15.6807" fill="white" stroke="black" stroke-width="8.13072"/>
<path d="M87.1149 79.565L88.8572 74.3381C64.2327 67.8335 58.0766 42.5895 58.0766 30.7806C52.5013 60.5159 75.1124 75.6932 87.1149 79.565Z" fill="#F26A2C"/>
<path d="M61.5612 68.5304C72.2472 79.2165 89.2443 86.9213 95.8263 89.438L94.084 92.9226C72.2472 82.2365 62.9163 72.2086 61.5612 68.5304Z" fill="#F26A2C"/>
<path d="M49.3651 101.634C60.0512 112.32 75.306 121.186 81.888 123.703L80.7265 127.768C58.8897 117.082 50.7202 105.312 49.3651 101.634Z" fill="#F26A2C"/>
<path d="M153.322 90.5995C146.818 106.396 132.802 108.41 126.607 107.442L114.411 137.642C115.183 135.729 119.444 136.48 121.961 137.061C143.449 142.288 152.741 157.968 153.903 142.868C159.943 144.262 160.291 139.19 159.711 136.48C165.751 134.622 165.712 130.285 164.938 128.349C175.159 120.451 160.679 114.217 152.161 112.088C165.634 97.2202 158.743 91.3738 153.322 90.5995Z" fill="white"/>
<path d="M121.961 105.699L94.0841 92.9225L81.888 123.703L109.765 135.899L121.961 105.699Z" fill="white"/>
<circle cx="112.669" cy="108.022" r="2.90383" fill="#F26A2C"/>
<path d="M172.984 206.863L166.778 210.29C187.303 210.61 198.07 208.954 200.888 208.087L172.984 206.863Z" fill="#D9D9D9"/>
<path d="M149.307 204.338L57.3008 196.279C75.7499 202.919 131.002 208.032 156.321 209.759L149.307 204.338Z" fill="#D9D9D9"/>
</svg>
