<svg width="219" height="219" viewBox="0 0 219 219" fill="none" xmlns="http://www.w3.org/2000/svg">
<circle cx="109.5" cy="109.5" r="109.5" fill="white"/>
<path d="M152.809 47.6647C173.487 61.1108 185.506 83.7471 185.506 109.798C185.506 147.832 154.225 178.04 116.585 182.929" stroke="#F26A2C" stroke-width="6.44118" stroke-linecap="round"/>
<path d="M52.9282 159.985C36.5749 141.113 31.1224 115.418 38.2459 89.5357C44.7186 66.0175 62.0984 48.741 83.4132 40.2942" stroke="#F26A2C" stroke-width="6.44118" stroke-linecap="round"/>
<path d="M47.2394 167.224C29.0574 149.592 21.0506 123.581 25.5528 95.8769C26.9144 87.4986 29.5488 79.6937 33.2095 72.5918" stroke="black" stroke-width="3.22059" stroke-linecap="round"/>
<path d="M180.675 157.809C210.626 117.874 192.913 61.1912 158.708 39.4197M180.675 157.809C163.606 168.759 186.472 151.368 180.675 157.809Z" stroke="black" stroke-width="3.22059" stroke-linecap="round"/>
<path fill-rule="evenodd" clip-rule="evenodd" d="M150.183 81.9401C148.287 81.5122 146.886 82.153 145.762 83.5835C146.043 81.3548 147.043 79.9087 149.558 80.4148C148.654 79.1057 147.431 78.8258 146.124 78.7236C147.548 78.4002 149.058 77.8988 150.379 79.8894C150.504 78.8988 149.778 77.6752 149.052 76.4516C150.165 77.5984 151.084 78.7836 151.354 80.1384C151.857 79.6359 152.663 79.2344 153.577 78.9723C153.7 78.988 154.072 79.0348 154.327 79.5072C153.917 79.2668 152.159 79.737 151.562 80.9824C152.174 80.6193 152.824 80.4498 153.644 80.9306C152.885 80.9607 152.289 81.2 151.716 81.7565C153.697 82.0065 155.035 82.8671 155.388 85.05C154.5 83.6172 153.425 82.664 151.8 82.5848C153.346 84.2893 153.391 85.9302 152.661 87.725C152.686 86.0301 152.2 84.3965 150.995 82.9865C150.165 84.0769 149.22 84.5865 148.09 84.5698C149.244 83.8977 150.175 82.5057 150.183 81.9408L150.183 81.9401Z" fill="#358C26"/>
<path fill-rule="evenodd" clip-rule="evenodd" d="M153.392 84.9236C154.131 88.0358 153.229 91.1925 150.789 93.0858C147.303 95.7907 142.08 94.8171 139.105 90.9826C136.13 87.1482 136.538 81.9166 140.024 79.2118C142.115 77.5889 144.794 77.2979 147.331 78.1212C146.364 78.3136 145.203 78.5444 144.165 78.791C145.651 78.9784 147.663 78.9807 148.792 80.0036C145.859 79.8223 145.515 82.5461 145.234 84.7749C146.513 83.1124 147.498 81.7899 149.78 82.1411C149.291 83.5259 147.998 84.3061 146.844 84.9782C148.554 84.8796 149.738 84.9661 150.932 83.4815C152.462 85.3098 152.367 87.0588 152.349 89.195C152.962 87.8257 153.629 86.5262 153.391 84.9239L153.392 84.9236Z" fill="#C92C0A"/>
<path d="M131.154 68.1779C131.657 69.102 132.297 69.5747 132.919 69.8524L132.688 70.3175L131.729 70.4197C131.31 69.9419 130.96 69.3075 130.936 68.3319C130.933 68.2493 130.941 68.1582 130.948 68.0618C130.955 67.9674 130.963 67.8648 130.964 67.7551C130.981 67.7952 130.999 67.8365 131.017 67.8792C131.057 67.9812 131.103 68.0808 131.154 68.1779ZM130 66.9727C130.349 67.3694 130.326 67.6676 130.299 68.0108C130.288 68.1229 130.283 68.2355 130.284 68.3482C130.304 69.1373 130.505 69.8109 130.899 70.4071C130.97 70.5145 131.045 70.6151 131.122 70.7103L130.669 71.0485L130.184 70.891C130.171 70.5143 130.055 70.081 129.835 69.5951C129.697 69.2916 129.536 68.9985 129.354 68.7187L129.355 68.1047C129.356 68.0401 129.337 67.9769 129.301 67.9232C129.296 67.9164 128.865 67.2446 129.093 66.7246C129.251 66.7155 129.646 66.8231 130 66.9727ZM128.453 67.9755C128.491 67.8986 128.497 67.8101 128.469 67.7289C128.432 67.6002 128.407 67.4677 128.396 67.3339C128.447 67.637 128.551 67.9284 128.704 68.1946L128.702 68.8168C128.702 68.8839 128.722 68.9492 128.761 69.0043C128.979 69.3169 129.437 70.1064 129.522 70.7582L128.559 70.6062C128.667 69.8117 128.341 68.8726 128.195 68.5037L128.453 67.9755ZM112.136 81.4089C112.143 81.2292 112.344 80.8831 112.506 80.6601C112.689 80.6058 113.128 80.632 113.4 80.6481C113.472 80.6524 113.541 80.6565 113.608 80.6598L113.483 81.3617L112.694 81.9274C112.458 81.7461 112.188 81.5235 112.136 81.4089ZM113.24 82.3373L113.845 81.9037C114.135 81.9796 114.804 82.1449 115.557 82.2694C115.733 82.2966 115.899 82.1767 115.928 82.0005C115.957 81.8243 115.839 81.6575 115.663 81.6267C115.047 81.5251 114.48 81.3919 114.154 81.3101L114.275 80.6314C115.043 80.4928 116.611 80.3422 117.659 80.2413C117.843 80.2237 118.01 80.2076 118.155 80.1932C120.703 79.9425 124.866 77.4342 126.415 74.5765C126.506 74.4086 126.59 74.2377 126.68 74.0572C126.975 73.4601 127.343 72.7163 128.319 71.2784C128.329 71.2633 128.338 71.2476 128.348 71.2321L129.441 71.405C128.702 73.5556 128.491 74.2802 128.306 75.0633C127.622 77.9511 125.117 81.5537 122.11 82.5841C121.416 82.8219 119.381 83.549 118.313 84.0515C118.191 84.1091 117.93 84.1647 117.678 84.2186C117.559 84.2442 117.438 84.27 117.321 84.2977C116.236 84.0685 114.628 83.4473 113.277 82.3664C113.265 82.3573 113.252 82.347 113.24 82.3373ZM116.735 85.9808C116.691 85.7984 116.8 85.391 116.903 85.1225C116.999 85.0608 117.183 85.0038 117.38 84.9542C117.401 84.9511 117.422 84.9461 117.443 84.9387C117.572 84.9075 117.703 84.8796 117.814 84.8557C117.991 84.8177 118.153 84.783 118.296 84.7438L118.606 85.3208L117.866 86.5216C117.581 86.4148 116.859 86.143 116.735 85.9808ZM124.907 87.1397C123.741 87.4734 121.028 87.641 118.488 86.7539L119.165 85.6549C119.675 85.634 120.183 85.5719 120.683 85.4692C120.859 85.4339 120.974 85.2621 120.938 85.0858C120.903 84.9094 120.731 84.795 120.555 84.8305C120.1 84.9236 119.638 84.9812 119.174 85.0027L118.904 84.4991C119.993 84.022 121.7 83.4133 122.321 83.2005C123.797 82.6948 125.296 81.5524 126.542 79.9836C127.69 78.538 128.564 76.7994 128.939 75.2132C129.122 74.4428 129.332 73.7251 130.083 71.5432L130.627 71.72C130.728 71.7526 130.838 71.7344 130.923 71.6712L131.568 71.1901C131.714 71.3295 131.858 71.4542 131.989 71.5676C132.215 71.7638 132.411 71.9333 132.524 72.0927C133.819 73.9195 133.514 77.4881 132.885 79.4378C132.173 81.644 131.045 83.427 129.535 84.7374C128.287 85.8197 126.773 86.6054 124.907 87.1397ZM127.227 89.3344C127.112 89.1963 127.028 88.8049 126.998 88.5309C127.097 88.368 127.44 88.0923 127.652 87.9211C127.763 87.8317 127.867 87.7478 127.96 87.6671L128.438 88.2668L128.025 89.3398C127.721 89.3664 127.347 89.3863 127.227 89.3344ZM133.796 87.0457C133.251 87.551 131.596 89.0843 128.749 89.2737L129.113 88.3268C129.155 88.219 129.136 88.0972 129.064 88.0069L128.401 87.1761C128.618 86.9011 128.86 86.6157 129.114 86.3168C129.453 85.9174 129.803 85.5044 130.1 85.1028C131.647 83.7171 132.774 81.9037 133.505 79.6384C134.13 77.7024 134.56 73.84 133.055 71.7161C132.897 71.4927 132.663 71.2901 132.416 71.0755C132.39 71.0537 132.365 71.0316 132.34 71.0095L132.935 70.9461C133.044 70.9345 133.139 70.8688 133.19 70.7716C134.054 70.9378 134.819 71.4741 135.653 73.228C135.69 73.3065 135.756 73.3674 135.838 73.3969C135.919 73.4262 136.01 73.4217 136.088 73.3845C136.166 73.3471 136.227 73.2802 136.255 73.1982C136.284 73.1163 136.279 73.0264 136.241 72.9482C135.653 71.711 134.908 70.5341 133.487 70.1725L133.534 70.0761C133.718 70.1304 133.895 70.1744 134.06 70.2154C134.342 70.2855 134.586 70.3462 134.753 70.4339C136.735 71.4713 138.049 74.6773 138.083 76.4289C138.187 81.8223 135.809 85.1794 133.796 87.0457Z" fill="#F9BA15"/>
<path d="M59.903 90.9107C62.5789 73.2081 70.1094 64.151 73.5401 61.8353C69.4232 66.3638 67.5363 81.0474 67.1075 87.823L71.2244 84.7354C69.508 103.004 85.1188 111.238 81.5166 109.694C78.6347 108.459 74.4836 104.376 72.7682 102.489C74.0033 108.047 82.7173 114.926 86.92 117.67C78.892 115.818 71.2244 105.062 68.394 99.9164C72.5109 112.782 80.5816 118.442 83.0604 119.986L79.4581 118.185C79.4581 119.008 83.7465 122.473 85.8907 124.103C84.4498 124.103 78.9435 119.815 76.3705 117.67C77.8114 121.17 85.2046 126.161 88.7211 128.22L86.92 131.822C65.718 122.353 61.1037 100.088 61.4468 90.1388L59.903 90.9107Z" fill="#F26A2C"/>
<path d="M154.076 91.9399L109.82 82.1623L89.7502 133.109L150.989 146.746L154.076 91.9399Z" fill="#F26A2C"/>
<path d="M144.556 95.2849C130.353 101.46 120.798 93.5695 117.797 88.8522L114.709 91.168C124.178 104.136 139.925 101.546 146.615 98.6298L144.556 95.2849Z" fill="black"/>
<circle cx="114.452" cy="87.5657" r="3.85957" fill="black"/>
<circle cx="148.416" cy="95.2849" r="3.85957" fill="black"/>
<circle cx="105.189" cy="136.968" r="5.4034" fill="white" stroke="black" stroke-width="3.08766"/>
<circle cx="131.691" cy="143.401" r="6.94723" fill="white" stroke="black" stroke-width="3.60227"/>
<path d="M98.4987 97.086L99.2706 94.7703C88.3609 91.8885 85.6335 80.7043 85.6335 75.4724C83.1633 88.6464 93.1811 95.3706 98.4987 97.086Z" fill="#F26A2C"/>
<path d="M87.1772 92.1972C91.9117 96.9316 99.4421 100.345 102.358 101.46L101.586 103.004C91.9117 98.2696 87.7776 93.8268 87.1772 92.1972Z" fill="#F26A2C"/>
<path d="M81.7738 106.864C86.5082 111.598 93.2667 115.526 96.1829 116.641L95.6683 118.442C85.9936 113.708 82.3742 108.493 81.7738 106.864Z" fill="#F26A2C"/>
<path d="M127.831 101.975C124.95 108.973 118.74 109.865 115.995 109.437L110.592 122.816C110.934 121.969 112.822 122.302 113.937 122.559C123.457 124.875 127.574 131.822 128.089 125.132C130.765 125.75 130.919 123.503 130.662 122.302C133.338 121.478 133.321 119.557 132.978 118.7C137.506 115.2 131.091 112.438 127.317 111.495C133.286 104.908 130.233 102.318 127.831 101.975Z" fill="white"/>
<path d="M113.937 108.665L101.586 103.004L96.1829 116.641L108.533 122.045L113.937 108.665Z" fill="white"/>
<circle cx="109.82" cy="109.694" r="1.28652" fill="#F26A2C"/>
<path d="M136.542 153.485L133.793 155.003C142.886 155.145 147.657 154.411 148.905 154.027L136.542 153.485Z" fill="#D9D9D9"/>
<path d="M126.052 152.366L85.2897 148.796C93.4635 151.737 117.942 154.003 129.16 154.768L126.052 152.366Z" fill="#D9D9D9"/>
</svg>
